<svg width="23.990234" height="24.015381" viewBox="0 0 23.9902 24.0154" fill="none" xmlns="http://www.w3.org/2000/svg" xmlns:xlink="http://www.w3.org/1999/xlink">
	<desc>
			Created with Pixso.
	</desc>
	<defs>
		<clipPath id="clip19_285">
			<rect id="bx:bxs-check-circle" rx="-0.500000" width="22.990334" height="23.015329" transform="translate(0.500000 0.500000)" fill="white" fill-opacity="0"/>
		</clipPath>
	</defs>
	<rect id="bx:bxs-check-circle" rx="-0.500000" width="22.990334" height="23.015329" transform="translate(0.500000 0.500000)" fill="#FFFFFF" fill-opacity="0"/>
	<g clip-path="url(#clip19_285)">
		<path id="Vector" d="M11.99 2C6.48 2 1.99 6.48 1.99 12C1.99 17.52 6.48 22.01 11.99 22.01C17.5 22.01 21.99 17.52 21.99 12C21.99 6.48 17.5 2 11.99 2ZM9.99 16.42L6.99 13.42C6.6 13.03 6.6 12.39 6.99 12C7.37 11.61 8.01 11.61 8.4 12L9.99 13.59L14.57 9C14.96 8.61 15.6 8.61 15.99 9C16.38 9.39 16.38 10.02 15.99 10.41L9.99 16.42Z" fill="#2FAB73" fill-opacity="1.000000" fill-rule="nonzero"/>
	</g>
</svg>
