<svg width="55.000000" height="54.997803" viewBox="0 0 55 54.9978" fill="none" xmlns="http://www.w3.org/2000/svg" xmlns:xlink="http://www.w3.org/1999/xlink">
	<desc>
			Created with Pixso.
	</desc>
	<defs>
		<clipPath id="clip19_231">
			<rect id="heroicons:sm-user" rx="-0.500000" width="23.000000" height="22.999088" transform="translate(16.000000 15.999512)" fill="white" fill-opacity="0"/>
		</clipPath>
	</defs>
	<rect id="Rectangle 271" rx="27.498955" width="55.000000" height="54.997910" fill="#FFECEC" fill-opacity="1.000000"/>
	<rect id="heroicons:sm-user" rx="-0.500000" width="23.000000" height="22.999088" transform="translate(16.000000 15.999512)" fill="#FFFFFF" fill-opacity="0"/>
	<g clip-path="url(#clip19_231)">
		<path id="Vector" d="M27.5 26.29C28.45 26.29 29.37 25.91 30.04 25.24C30.72 24.56 31.09 23.65 31.09 22.69C31.09 21.74 30.72 20.82 30.04 20.15C29.37 19.47 28.45 19.09 27.5 19.09C26.54 19.09 25.62 19.47 24.95 20.15C24.27 20.82 23.89 21.74 23.89 22.69C23.89 23.65 24.27 24.56 24.95 25.24C25.62 25.91 26.54 26.29 27.5 26.29ZM22.39 37.09C20.57 37.09 19.04 35.56 19.73 33.88C20.16 32.86 20.78 31.93 21.55 31.15C22.33 30.37 23.26 29.76 24.28 29.33C25.3 28.91 26.39 28.69 27.5 28.69C28.6 28.69 29.69 28.91 30.71 29.33C31.73 29.76 32.65 30.37 33.43 31.15C34.21 31.93 34.83 32.86 35.25 33.88C35.95 35.56 34.42 37.09 32.6 37.09L22.39 37.09Z" fill="#DC7000" fill-opacity="1.000000" fill-rule="evenodd"/>
	</g>
</svg>
