<svg width="50.000000" height="16.704102" viewBox="0 0 50 16.7041" fill="none" xmlns="http://www.w3.org/2000/svg" xmlns:xlink="http://www.w3.org/1999/xlink">
	<desc>
			Created with Pixso.
	</desc>
	<defs>
		<clipPath id="clip1_1217">
			<rect id="ant-design:star-filled" rx="-0.500000" width="15.000000" height="15.000000" transform="translate(34.500000 0.500000)" fill="white" fill-opacity="0"/>
		</clipPath>
	</defs>
	<path id="4.5" d="M6.24 13.66Q6.31 13.7 6.41 13.7L7.21 13.7Q7.32 13.7 7.4 13.66Q7.44 13.63 7.48 13.6Q7.52 13.56 7.54 13.51Q7.58 13.43 7.58 13.33L7.58 11.03L9.03 11.03Q9.14 11.03 9.23 10.98Q9.26 10.96 9.3 10.93Q9.34 10.89 9.36 10.84Q9.4 10.76 9.4 10.66L9.4 10Q9.4 9.9 9.36 9.82Q9.33 9.78 9.3 9.74Q9.27 9.72 9.25 9.7Q9.16 9.64 9.02 9.64L7.58 9.64L7.58 2.87Q7.58 2.76 7.54 2.68Q7.51 2.64 7.48 2.61Q7.44 2.57 7.39 2.54Q7.31 2.5 7.21 2.5L6.06 2.5Q5.77 2.5 5.59 2.64Q5.52 2.69 5.47 2.77L0.67 9.54Q0.57 9.68 0.53 9.82Q0.49 9.96 0.49 10.02L0.49 10.66Q0.49 10.77 0.54 10.85Q0.56 10.89 0.59 10.93Q0.63 10.96 0.67 10.98Q0.75 11.03 0.86 11.03L6.04 11.03L6.04 13.33Q6.04 13.43 6.08 13.51Q6.11 13.56 6.15 13.6Q6.19 13.64 6.24 13.66ZM16.26 13.42Q17.13 13.86 18.39 13.86Q19.58 13.86 20.5 13.42Q21.06 13.16 21.47 12.75Q21.75 12.48 21.96 12.13Q22.49 11.29 22.49 10.07Q22.49 9.2 22.19 8.54Q21.98 8.09 21.68 7.74Q21.53 7.56 21.35 7.41Q21.23 7.31 21.1 7.21Q20.66 6.89 20.11 6.71Q19.42 6.47 18.62 6.47Q17.75 6.47 17.27 6.67Q16.78 6.87 16.54 7.01L16.84 3.86L21.45 3.86Q21.57 3.86 21.66 3.81Q21.69 3.79 21.72 3.77Q21.74 3.75 21.75 3.72Q21.82 3.63 21.82 3.49L21.82 2.87Q21.82 2.76 21.78 2.68Q21.75 2.64 21.72 2.61Q21.68 2.57 21.63 2.54Q21.55 2.5 21.45 2.5L15.87 2.5Q15.73 2.5 15.64 2.56Q15.61 2.58 15.59 2.61Q15.48 2.71 15.47 2.9L14.95 8.24Q14.95 8.3 14.96 8.36Q14.99 8.43 15.05 8.49Q15.12 8.55 15.2 8.58Q15.25 8.59 15.31 8.59L16.14 8.59Q16.26 8.59 16.38 8.55Q16.47 8.52 16.55 8.47Q16.73 8.34 16.96 8.16Q17.2 7.99 17.53 7.86Q17.87 7.73 18.39 7.73Q19.09 7.73 19.65 8Q19.65 8.01 19.66 8.01Q20.02 8.18 20.28 8.45Q20.44 8.61 20.56 8.81Q20.57 8.83 20.58 8.84Q20.89 9.35 20.89 10.05Q20.89 10.84 20.56 11.39Q20.37 11.69 20.12 11.91Q19.91 12.09 19.65 12.22Q19.59 12.25 19.52 12.28Q19.01 12.5 18.39 12.5Q18.05 12.5 17.72 12.42Q17.57 12.39 17.41 12.33Q17.25 12.28 17.1 12.2Q16.82 12.04 16.58 11.79Q16.22 11.41 16.06 10.82Q16 10.61 15.88 10.54Q15.86 10.52 15.83 10.51Q15.74 10.47 15.63 10.47L14.76 10.47Q14.67 10.47 14.59 10.51Q14.55 10.53 14.52 10.56Q14.49 10.59 14.47 10.62Q14.43 10.69 14.44 10.79Q14.45 10.98 14.48 11.16Q14.59 11.74 14.93 12.28Q15.39 12.98 16.26 13.42ZM6.06 9.67L2.2 9.67L6.06 4.18L6.06 9.67ZM10.95 13.66Q11.03 13.7 11.13 13.7L12.28 13.7Q12.39 13.7 12.47 13.66Q12.51 13.64 12.55 13.6Q12.6 13.55 12.63 13.49Q12.67 13.42 12.67 13.33L12.67 12.18Q12.67 12.09 12.63 12.01Q12.6 11.96 12.55 11.92Q12.51 11.88 12.46 11.85Q12.38 11.81 12.28 11.81L11.13 11.81Q11.03 11.81 10.95 11.85Q10.91 11.88 10.87 11.92Q10.83 11.95 10.81 12Q10.76 12.08 10.76 12.18L10.76 13.33Q10.76 13.43 10.8 13.51Q10.83 13.56 10.87 13.6Q10.9 13.63 10.95 13.66Z" fill="#0B132A" fill-opacity="1.000000" fill-rule="evenodd"/>
	<rect id="ant-design:star-filled" rx="-0.500000" width="15.000000" height="15.000000" transform="translate(34.500000 0.500000)" fill="#FFFFFF" fill-opacity="0"/>
	<g clip-path="url(#clip1_1217)">
		<path id="Vector" d="M48.18 5.51L44.22 4.94L42.44 1.34C42.4 1.24 42.32 1.16 42.22 1.11C41.97 0.99 41.67 1.09 41.55 1.34L39.77 4.94L35.81 5.51C35.7 5.53 35.6 5.58 35.52 5.66C35.43 5.75 35.38 5.88 35.38 6.01C35.38 6.15 35.43 6.27 35.53 6.37L38.4 9.16L37.72 13.12C37.71 13.21 37.72 13.3 37.75 13.39C37.79 13.47 37.84 13.55 37.92 13.6C38 13.66 38.08 13.69 38.18 13.7C38.27 13.71 38.36 13.69 38.45 13.64L42 11.78L45.54 13.64C45.64 13.69 45.75 13.71 45.86 13.69C46.13 13.65 46.32 13.39 46.27 13.12L45.59 9.16L48.46 6.37C48.54 6.29 48.59 6.19 48.61 6.08C48.65 5.81 48.46 5.55 48.18 5.51Z" fill="#FEA250" fill-opacity="1.000000" fill-rule="nonzero"/>
	</g>
</svg>
