<svg width="55.000000" height="54.997803" viewBox="0 0 55 54.9978" fill="none" xmlns="http://www.w3.org/2000/svg" xmlns:xlink="http://www.w3.org/1999/xlink">
	<desc>
			Created with Pixso.
	</desc>
	<defs>
		<clipPath id="clip19_226">
			<rect id="gridicons:location" rx="-0.500000" width="23.000000" height="22.999088" transform="translate(16.000000 15.999512)" fill="white" fill-opacity="0"/>
		</clipPath>
	</defs>
	<rect id="Rectangle 270" rx="27.498955" width="55.000000" height="54.997910" fill="#FFECEC" fill-opacity="1.000000"/>
	<rect id="gridicons:location" rx="-0.500000" width="23.000000" height="22.999088" transform="translate(16.000000 15.999512)" fill="#FFFFFF" fill-opacity="0"/>
	<g clip-path="url(#clip19_226)">
		<path id="Vector" d="M34.5 24.49C34.5 23.57 34.31 22.66 33.96 21.82C33.61 20.97 33.09 20.19 32.45 19.54C31.79 18.89 31.02 18.38 30.17 18.03C29.32 17.68 28.41 17.49 27.5 17.49C26.58 17.49 25.67 17.68 24.82 18.03C23.97 18.38 23.2 18.89 22.54 19.54C21.9 20.19 21.38 20.97 21.03 21.82C20.68 22.66 20.5 23.57 20.5 24.49C20.5 25.88 20.91 27.17 21.6 28.26L21.59 28.26C23.95 31.95 27.5 37.49 27.5 37.49L33.4 28.26L33.39 28.26C34.11 27.14 34.5 25.83 34.5 24.49ZM27.5 27.49C26.7 27.49 25.94 27.18 25.37 26.62C24.81 26.05 24.5 25.29 24.5 24.49C24.5 23.7 24.81 22.94 25.37 22.37C25.94 21.81 26.7 21.49 27.5 21.49C28.29 21.49 29.05 21.81 29.62 22.37C30.18 22.94 30.5 23.7 30.5 24.49C30.5 25.29 30.18 26.05 29.62 26.62C29.05 27.18 28.29 27.49 27.5 27.49Z" fill="#DC7000" fill-opacity="1.000000" fill-rule="nonzero"/>
	</g>
</svg>
