<svg width="55.000000" height="54.997803" viewBox="0 0 55 54.9978" fill="none" xmlns="http://www.w3.org/2000/svg" xmlns:xlink="http://www.w3.org/1999/xlink">
	<desc>
			Created with Pixso.
	</desc>
	<defs>
		<clipPath id="clip19_237">
			<rect id="bx:bxs-server" rx="-0.500000" width="23.000000" height="22.999088" transform="translate(16.000000 15.999512)" fill="white" fill-opacity="0"/>
		</clipPath>
	</defs>
	<rect id="Rectangle 272" rx="27.498955" width="55.000000" height="54.997910" fill="#FFECEC" fill-opacity="1.000000"/>
	<rect id="bx:bxs-server" rx="-0.500000" width="23.000000" height="22.999088" transform="translate(16.000000 15.999512)" fill="#FFFFFF" fill-opacity="0"/>
	<g clip-path="url(#clip19_237)">
		<path id="Vector" d="M35.5 18.49L19.5 18.49C18.96 18.49 18.46 18.7 18.08 19.08C17.71 19.46 17.5 19.96 17.5 20.49L17.5 24.49C17.5 25.02 17.71 25.53 18.08 25.91C18.46 26.28 18.96 26.49 19.5 26.49L35.5 26.49C36.03 26.49 36.53 26.28 36.91 25.91C37.28 25.53 37.5 25.02 37.5 24.49L37.5 20.49C37.5 19.96 37.28 19.46 36.91 19.08C36.53 18.7 36.03 18.49 35.5 18.49ZM29.5 23.49C28.94 23.49 28.5 23.05 28.5 22.49C28.5 21.94 28.94 21.49 29.5 21.49C30.05 21.49 30.5 21.94 30.5 22.49C30.5 23.05 30.05 23.49 29.5 23.49ZM33.5 23.49C32.94 23.49 32.5 23.05 32.5 22.49C32.5 21.94 32.94 21.49 33.5 21.49C34.05 21.49 34.5 21.94 34.5 22.49C34.5 23.05 34.05 23.49 33.5 23.49ZM35.5 28.49L19.5 28.49C18.96 28.49 18.46 28.7 18.08 29.08C17.71 29.45 17.5 29.96 17.5 30.49L17.5 34.49C17.5 35.02 17.71 35.53 18.08 35.91C18.46 36.28 18.96 36.49 19.5 36.49L35.5 36.49C36.03 36.49 36.53 36.28 36.91 35.91C37.28 35.53 37.5 35.02 37.5 34.49L37.5 30.49C37.5 29.96 37.28 29.45 36.91 29.08C36.53 28.7 36.03 28.49 35.5 28.49ZM29.5 33.49C28.94 33.49 28.5 33.05 28.5 32.49C28.5 31.94 28.94 31.49 29.5 31.49C30.05 31.49 30.5 31.94 30.5 32.49C30.5 33.05 30.05 33.49 29.5 33.49ZM33.5 33.49C32.94 33.49 32.5 33.05 32.5 32.49C32.5 31.94 32.94 31.49 33.5 31.49C34.05 31.49 34.5 31.94 34.5 32.49C34.5 33.05 34.05 33.49 33.5 33.49Z" fill="#DC7000" fill-opacity="1.000000" fill-rule="nonzero"/>
	</g>
</svg>
